<?xml version="1.0" encoding="utf-8"?>
<!-- Generator: Adobe Illustrator 23.0.3, SVG Export Plug-In . SVG Version: 6.00 Build 0)  -->
<svg version="1.1" id="Layer_1" xmlns="http://www.w3.org/2000/svg" xmlns:xlink="http://www.w3.org/1999/xlink" x="0px" y="0px"
	 viewBox="0 0 642 642" style="enable-background:new 0 0 642 642;" xml:space="preserve">
<style type="text/css">
	.st0{fill:url(#SVGID_1_);}
</style>
<linearGradient id="SVGID_1_" gradientUnits="userSpaceOnUse" x1="114.7719" y1="320.9168" x2="514.4732" y2="320.9168">
	<stop  offset="0" style="stop-color:#804D85"/>
	<stop  offset="1" style="stop-color:#41BDBD"/>
</linearGradient>
<path class="st0" d="M513.1,168.6c-2-3.7-5.9-6-10.2-5.9H255.3c-6.2,0-11.2,5-11.2,11.2V276c0,6.2,5,11.2,11.2,11.2
	c6.2,0,11.2-5,11.2-11.2v-90.9h160l-107.8,32.3c-4.8,1.4-8,5.8-8,10.8v317h-44.3v-86.9c0-6.2-5-11.2-11.2-11.2
	c-6.2,0-11.2,5-11.2,11.2v98.1c0,6.2,5,11.2,11.2,11.2h55.5v43c0,3.6,1.7,6.9,4.5,9c2.8,2.1,6.5,2.8,9.9,1.7l181.2-54.2
	c4.8-1.4,8-5.8,8-10.8V174.2C514.5,172.3,514.1,170.3,513.1,168.6z M492,548l-158.7,47.5v-359L492,189V548z M375.5,416
	c16.5,0,29.9-13.4,29.9-29.9c0-16.5-13.4-29.9-29.9-29.9c-16.5,0-29.9,13.4-29.9,29.9C345.6,402.6,359,416,375.5,416z M375.5,378.6
	c4.1,0,7.5,3.4,7.5,7.5c0,4.1-3.3,7.5-7.5,7.5c-4.1,0-7.5-3.4-7.5-7.5C368.1,381.9,371.4,378.6,375.5,378.6z M385.5,139.8
	c33.1,0,59.9-26.8,59.9-59.9c0-33.1-26.8-59.9-59.9-59.9c-33.1,0-59.9,26.8-59.9,59.9c-0.1,15.9,6.2,31.2,17.5,42.4
	C354.3,133.6,369.6,139.8,385.5,139.8z M385.5,39.9c22.1,0,39.9,17.9,39.9,39.9c0,22-17.9,39.9-39.9,39.9
	c-22.1,0-39.9-17.9-39.9-39.9C345.6,57.8,363.5,39.9,385.5,39.9z M370.7,75l9.3,6v22.2c0,5.5,4.5,10,10,10c5.5,0,10-4.5,10-10V75.5
	c0-3.4-1.7-6.6-4.6-8.4l-13.9-8.9c-4.6-3-10.8-1.6-13.8,3C364.7,65.8,366.1,72,370.7,75z M153.1,376.1H287c6.2,0,11.2-5,11.2-11.2
	c0-6.2-5-11.2-11.2-11.2H153.1l32-32c4.4-4.4,4.4-11.5,0-15.9c-4.4-4.4-11.5-4.4-15.9,0l-51.2,51.2c-4.4,4.4-4.4,11.5,0,15.9
	l51.2,51.2c4.4,4.4,11.5,4.4,15.9,0c4.4-4.4,4.4-11.5,0-15.9L153.1,376.1z"/>
</svg>
